/videos/a4b875fe-f94b-38c3-0d63-35537363af04/hls1/main/0.ts

{"Protocol":0,"Id":"a4b875fef94b38c30d6335537363af04","Path":"/data/tvshows/Jujutsu Kaisen/Season 2/Jujutsu Kaisen - S02E02 - Hidden Inventory 2 WEBDL-2160p.mp4","EncoderPath":null,"EncoderProtocol":null,"Type":0,"Container":"mov,mp4,m4a,3gp,3g2,mj2","Size":1301254784,"Name":"Jujutsu Kaisen - S02E02 - Hidden Inventory 2 WEBDL-2160p","IsRemote":false,"ETag":"432222130d925f3b4801ec9159c3eec8","RunTimeTicks":14360259584,"ReadAtNativeFramerate":false,"IgnoreDts":false,"IgnoreIndex":false,"GenPtsInput":false,"SupportsTranscoding":true,"SupportsDirectStream":true,"SupportsDirectPlay":true,"IsInfiniteStream":false,"RequiresOpening":false,"OpenToken":null,"RequiresClosing":false,"LiveStreamId":null,"BufferMs":null,"RequiresLooping":false,"SupportsProbing":true,"VideoType":0,"IsoType":null,"Video3DFormat":null,"MediaStreams":[{"Codec":"h264","CodecTag":"avc1","Language":"jpn","ColorRange":null,"ColorSpace":"bt709","ColorTransfer":"bt709","ColorPrimaries":"bt709","DvVersionMajor":null,"DvVersionMinor":null,"DvProfile":null,"DvLevel":null,"RpuPresentFlag":null,"ElPresentFlag":null,"BlPresentFlag":null,"DvBlSignalCompatibilityId":null,"Comment":null,"TimeBase":"1/16000","CodecTimeBase":null,"Title":null,"VideoRange":"SDR","VideoRangeType":"SDR","VideoDoViTitle":null,"LocalizedUndefined":null,"LocalizedDefault":null,"LocalizedForced":null,"LocalizedExternal":null,"DisplayTitle":"4K H264 SDR","NalLengthSize":"4","IsInterlaced":false,"IsAVC":true,"ChannelLayout":null,"BitRate":7060325,"BitDepth":8,"RefFrames":1,"PacketLength":null,"Channels":null,"SampleRate":null,"IsDefault":true,"IsForced":false,"Height":2160,"Width":3840,"AverageFrameRate":23.975998,"RealFrameRate":23.976025,"Profile":"High","Type":1,"AspectRatio":"16:9","Index":0,"Score":null,"IsExternal":false,"DeliveryMethod":null,"DeliveryUrl":null,"IsExternalUrl":null,"IsTextSubtitleStream":false,"SupportsExternalStream":false,"Path":null,"PixelFormat":"yuv420p","Level":51,"IsAnamorphic":null},{"Codec":"mov_text","CodecTag":"tx3g","Language":"und","ColorRange":null,"ColorSpace":null,"ColorTransfer":null,"ColorPrimaries":null,"DvVersionMajor":null,"DvVersionMinor":null,"DvProfile":null,"DvLevel":null,"RpuPresentFlag":null,"ElPresentFlag":null,"BlPresentFlag":null,"DvBlSignalCompatibilityId":null,"Comment":null,"TimeBase":"1/1000000","CodecTimeBase":null,"Title":null,"VideoRange":null,"VideoRangeType":null,"VideoDoViTitle":null,"LocalizedUndefined":"Undefined","LocalizedDefault":"Default","LocalizedForced":"Forced","LocalizedExternal":"External","DisplayTitle":"Und - Default - MOV_TEXT","NalLengthSize":null,"IsInterlaced":false,"IsAVC":null,"ChannelLayout":null,"BitRate":74,"BitDepth":null,"RefFrames":null,"PacketLength":null,"Channels":null,"SampleRate":null,"IsDefault":true,"IsForced":false,"Height":null,"Width":null,"AverageFrameRate":null,"RealFrameRate":null,"Profile":null,"Type":2,"AspectRatio":null,"Index":1,"Score":null,"IsExternal":false,"DeliveryMethod":null,"DeliveryUrl":null,"IsExternalUrl":null,"IsTextSubtitleStream":true,"SupportsExternalStream":true,"Path":null,"PixelFormat":null,"Level":0,"IsAnamorphic":null},{"Codec":"mov_text","CodecTag":"tx3g","Language":"und","ColorRange":null,"ColorSpace":null,"ColorTransfer":null,"ColorPrimaries":null,"DvVersionMajor":null,"DvVersionMinor":null,"DvProfile":null,"DvLevel":null,"RpuPresentFlag":null,"ElPresentFlag":null,"BlPresentFlag":null,"DvBlSignalCompatibilityId":null,"Comment":null,"TimeBase":"1/1000000","CodecTimeBase":null,"Title":null,"VideoRange":null,"VideoRangeType":null,"VideoDoViTitle":null,"LocalizedUndefined":"Undefined","LocalizedDefault":"Default","LocalizedForced":"Forced","LocalizedExternal":"External","DisplayTitle":"Und - Default - MOV_TEXT","NalLengthSize":null,"IsInterlaced":false,"IsAVC":null,"ChannelLayout":null,"BitRate":168,"BitDepth":null,"RefFrames":null,"PacketLength":null,"Channels":null,"SampleRate":null,"IsDefault":true,"IsForced":false,"Height":null,"Width":null,"AverageFrameRate":null,"RealFrameRate":null,"Profile":null,"Type":2,"AspectRatio":null,"Index":2,"Score":null,"IsExternal":false,"DeliveryMethod":null,"DeliveryUrl":null,"IsExternalUrl":null,"IsTextSubtitleStream":true,"SupportsExternalStream":true,"Path":null,"PixelFormat":null,"Level":0,"IsAnamorphic":null},{"Codec":"mov_text","CodecTag":"tx3g","Language":"und","ColorRange":null,"ColorSpace":null,"ColorTransfer":null,"ColorPrimaries":null,"DvVersionMajor":null,"DvVersionMinor":null,"DvProfile":null,"DvLevel":null,"RpuPresentFlag":null,"ElPresentFlag":null,"BlPresentFlag":null,"DvBlSignalCompatibilityId":null,"Comment":null,"TimeBase":"1/1000000","CodecTimeBase":null,"Title":null,"VideoRange":null,"VideoRangeType":null,"VideoDoViTitle":null,"LocalizedUndefined":"Undefined","LocalizedDefault":"Default","LocalizedForced":"Forced","LocalizedExternal":"External","DisplayTitle":"Und - Default - MOV_TEXT","NalLengthSize":null,"IsInterlaced":false,"IsAVC":null,"ChannelLayout":null,"BitRate":96,"BitDepth":null,"RefFrames":null,"PacketLength":null,"Channels":null,"SampleRate":null,"IsDefault":true,"IsForced":false,"Height":null,"Width":null,"AverageFrameRate":null,"RealFrameRate":null,"Profile":null,"Type":2,"AspectRatio":null,"Index":3,"Score":null,"IsExternal":false,"DeliveryMethod":null,"DeliveryUrl":null,"IsExternalUrl":null,"IsTextSubtitleStream":true,"SupportsExternalStream":true,"Path":null,"PixelFormat":null,"Level":0,"IsAnamorphic":null},{"Codec":"mov_text","CodecTag":"tx3g","Language":"und","ColorRange":null,"ColorSpace":null,"ColorTransfer":null,"ColorPrimaries":null,"DvVersionMajor":null,"DvVersionMinor":null,"DvProfile":null,"DvLevel":null,"RpuPresentFlag":null,"ElPresentFlag":null,"BlPresentFlag":null,"DvBlSignalCompatibilityId":null,"Comment":null,"TimeBase":"1/1000000","CodecTimeBase":null,"Title":null,"VideoRange":null,"VideoRangeType":null,"VideoDoViTitle":null,"LocalizedUndefined":"Undefined","LocalizedDefault":"Default","LocalizedForced":"Forced","LocalizedExternal":"External","DisplayTitle":"Und - Default - MOV_TEXT","NalLengthSize":null,"IsInterlaced":false,"IsAVC":null,"ChannelLayout":null,"BitRate":77,"BitDepth":null,"RefFrames":null,"PacketLength":null,"Channels":null,"SampleRate":null,"IsDefault":true,"IsForced":false,"Height":null,"Width":null,"AverageFrameRate":null,"RealFrameRate":null,"Profile":null,"Type":2,"AspectRatio":null,"Index":4,"Score":null,"IsExternal":false,"DeliveryMethod":null,"DeliveryUrl":null,"IsExternalUrl":null,"IsTextSubtitleStream":true,"SupportsExternalStream":true,"Path":null,"PixelFormat":null,"Level":0,"IsAnamorphic":null},{"Codec":"aac","CodecTag":"mp4a","Language":"jpn","ColorRange":null,"ColorSpace":null,"ColorTransfer":null,"ColorPrimaries":null,"DvVersionMajor":null,"DvVersionMinor":null,"DvProfile":null,"DvLevel":null,"RpuPresentFlag":null,"ElPresentFlag":null,"BlPresentFlag":null,"DvBlSignalCompatibilityId":null,"Comment":null,"TimeBase":"1/48000","CodecTimeBase":null,"Title":null,"VideoRange":null,"VideoRangeType":null,"VideoDoViTitle":null,"LocalizedUndefined":null,"LocalizedDefault":null,"LocalizedForced":null,"LocalizedExternal":null,"DisplayTitle":"Japanese - AAC - Stereo - Default","NalLengthSize":null,"IsInterlaced":false,"IsAVC":null,"ChannelLayout":"stereo","BitRate":186993,"BitDepth":null,"RefFrames":null,"PacketLength":null,"Channels":2,"SampleRate":48000,"IsDefault":true,"IsForced":false,"Height":null,"Width":null,"AverageFrameRate":null,"RealFrameRate":null,"Profile":"LC","Type":0,"AspectRatio":null,"Index":5,"Score":null,"IsExternal":false,"DeliveryMethod":null,"DeliveryUrl":null,"IsExternalUrl":null,"IsTextSubtitleStream":false,"SupportsExternalStream":false,"Path":null,"PixelFormat":null,"Level":0,"IsAnamorphic":null}],"MediaAttachments":[],"Formats":[],"Bitrate":7249198,"Timestamp":null,"RequiredHttpHeaders":{},"TranscodingUrl":null,"TranscodingSubProtocol":null,"TranscodingContainer":null,"AnalyzeDurationMs":null,"DefaultAudioStreamIndex":null,"DefaultSubtitleStreamIndex":null}

/usr/lib/jellyfin-ffmpeg/ffmpeg -analyzeduration 200M -f mov,mp4,m4a,3gp,3g2,mj2 -autorotate 0 -i file:"/data/tvshows/Jujutsu Kaisen/Season 2/Jujutsu Kaisen - S02E02 - Hidden Inventory 2 WEBDL-2160p.mp4" -map_metadata -1 -map_chapters -1 -threads 0 -map 0:0 -map 0:5 -map -0:s -codec:v:0 libx264 -preset veryfast -crf 23 -maxrate 6416780 -bufsize 12833560 -profile:v:0 high -level 51 -x264opts:0 subme=0:me_range=4:rc_lookahead=10:me=dia:no_chroma_me:8x8dct=0:partitions=none -force_key_frames:0 "expr:gte(t,0+n_forced*3)" -sc_threshold:v:0 0 -vf "setparams=color_primaries=bt709:color_trc=bt709:colorspace=bt709,scale=trunc(min(max(iw\,ih*a)\,1920)/2)*2:trunc(ow/a/2)*2,format=yuv420p" -codec:a:0 copy -copyts -avoid_negative_ts disabled -max_muxing_queue_size 2048 -f hls -max_delay 5000000 -hls_time 3 -hls_segment_type mpegts -start_number 0 -hls_segment_filename "/config/data/transcodes/d57c052e7dd260d5b303820baee4e4ce%d.ts" -hls_playlist_type vod -hls_list_size 0 -y "/config/data/transcodes/d57c052e7dd260d5b303820baee4e4ce.m3u8"


ffmpeg version 5.1.3-Jellyfin Copyright (c) 2000-2022 the FFmpeg developers
  built with gcc 11 (Ubuntu 11.3.0-1ubuntu1~22.04.1)
  configuration: --prefix=/usr/lib/jellyfin-ffmpeg --target-os=linux --extra-libs=-lfftw3f --extra-version=Jellyfin --disable-doc --disable-ffplay --disable-ptx-compression --disable-static --disable-libxcb --disable-sdl2 --disable-xlib --enable-lto --enable-gpl --enable-version3 --enable-shared --enable-gmp --enable-gnutls --enable-chromaprint --enable-libdrm --enable-libass --enable-libfreetype --enable-libfribidi --enable-libfontconfig --enable-libbluray --enable-libmp3lame --enable-libopus --enable-libtheora --enable-libvorbis --enable-libopenmpt --enable-libdav1d --enable-libwebp --enable-libvpx --enable-libx264 --enable-libx265 --enable-libzvbi --enable-libzimg --enable-libfdk-aac --arch=amd64 --enable-libsvtav1 --enable-libshaderc --enable-libplacebo --enable-vulkan --enable-opencl --enable-vaapi --enable-amf --enable-libmfx --enable-ffnvcodec --enable-cuda --enable-cuda-llvm --enable-cuvid --enable-nvdec --enable-nvenc
  libavutil      57. 28.100 / 57. 28.100
  libavcodec     59. 37.100 / 59. 37.100
  libavformat    59. 27.100 / 59. 27.100
  libavdevice    59.  7.100 / 59.  7.100
  libavfilter     8. 44.100 /  8. 44.100
  libswscale      6.  7.100 /  6.  7.100
  libswresample   4.  7.100 /  4.  7.100
  libpostproc    56.  6.100 / 56.  6.100
Input #0, mov,mp4,m4a,3gp,3g2,mj2, from 'file:/data/tvshows/Jujutsu Kaisen/Season 2/Jujutsu Kaisen - S02E02 - Hidden Inventory 2 WEBDL-2160p.mp4':
  Metadata:
    major_brand     : isom
    minor_version   : 512
    compatible_brands: isomiso2avc1mp41
    encoder         : Lavf60.3.100
  Duration: 00:23:56.03, start: 0.000000, bitrate: 7249 kb/s
  Stream #0:0[0x1](jpn): Video: h264 (High) (avc1 / 0x31637661), yuv420p(tv, bt709, progressive), 3840x2160 [SAR 1:1 DAR 16:9], 7060 kb/s, 23.98 fps, 23.98 tbr, 16k tbn (default)
    Metadata:
      handler_name    : VideoHandler
      vendor_id       : [0][0][0][0]
  Stream #0:1[0x2](und): Subtitle: mov_text (tx3g / 0x67337874), 0 kb/s (default)
    Metadata:
      handler_name    : SubtitleHandler
  Stream #0:2[0x3](und): Subtitle: mov_text (tx3g / 0x67337874), 0 kb/s (default)
    Metadata:
      handler_name    : SubtitleHandler
  Stream #0:3[0x4](und): Subtitle: mov_text (tx3g / 0x67337874), 0 kb/s (default)
    Metadata:
      handler_name    : SubtitleHandler
  Stream #0:4[0x5](und): Subtitle: mov_text (tx3g / 0x67337874), 0 kb/s (default)
    Metadata:
      handler_name    : SubtitleHandler
  Stream #0:5[0x6](jpn): Audio: aac (LC) (mp4a / 0x6134706D), 48000 Hz, stereo, fltp, 186 kb/s (default)
    Metadata:
      handler_name    : SoundHandler
      vendor_id       : [0][0][0][0]
Stream mapping:
  Stream #0:0 -> #0:0 (h264 (native) -> h264 (libx264))
  Stream #0:5 -> #0:1 (copy)
Press [q] to stop, [?] for help
[libx264 @ 0x564c7b6a3440] using SAR=1/1
[libx264 @ 0x564c7b6a3440] using cpu capabilities: MMX2 SSE2Fast SSSE3 SSE4.2 AVX FMA3 BMI2 AVX2
[libx264 @ 0x564c7b6a3440] profile Main, level 5.1, 4:2:0, 8-bit
[libx264 @ 0x564c7b6a3440] 264 - core 163 r3060 5db6aa6 - H.264/MPEG-4 AVC codec - Copyleft 2003-2021 - http://www.videolan.org/x264.html - options: cabac=1 ref=1 deblock=1:0:0 analyse=0x1:0 me=dia subme=0 psy=1 psy_rd=1.00:0.00 mixed_ref=0 me_range=4 chroma_me=0 trellis=0 8x8dct=0 cqm=0 deadzone=21,11 fast_pskip=1 chroma_qp_offset=0 threads=6 lookahead_threads=1 sliced_threads=0 nr=0 decimate=1 interlaced=0 bluray_compat=0 constrained_intra=0 bframes=3 b_pyramid=2 b_adapt=1 b_bias=0 direct=1 weightb=1 open_gop=0 weightp=1 keyint=250 keyint_min=23 scenecut=0 intra_refresh=0 rc_lookahead=10 rc=crf mbtree=1 crf=23.0 qcomp=0.60 qpmin=0 qpmax=69 qpstep=4 vbv_maxrate=6416 vbv_bufsize=12833 crf_max=0.0 nal_hrd=none filler=0 ip_ratio=1.40 aq=1:1.00
Output #0, hls, to '/config/data/transcodes/d57c052e7dd260d5b303820baee4e4ce.m3u8':
  Metadata:
    encoder         : Lavf59.27.100
  Stream #0:0: Video: h264, yuv420p(tv, bt709, progressive), 1920x1080 [SAR 1:1 DAR 16:9], q=2-31, 23.98 fps, 90k tbn (default)
    Metadata:
      encoder         : Lavc59.37.100 libx264
    Side data:
      cpb: bitrate max/min/avg: 6416000/0/0 buffer size: 12833000 vbv_delay: N/A
  Stream #0:1: Audio: aac (LC) (mp4a / 0x6134706D), 48000 Hz, stereo, fltp, 186 kb/s (default)
frame=    1 fps=0.6 q=0.0 size=N/A time=00:00:00.00 bitrate=N/A speed=   0x    
frame=    1 fps=0.3 q=0.0 size=N/A time=00:00:00.02 bitrate=N/A speed=0.00714x    
frame=    3 fps=0.8 q=0.0 size=N/A time=00:00:00.10 bitrate=N/A speed=0.0287x    
frame=    6 fps=1.4 q=0.0 size=N/A time=00:00:00.23 bitrate=N/A speed=0.0539x    
frame=    9 fps=1.9 q=0.0 size=N/A time=00:00:00.36 bitrate=N/A speed=0.0745x    
frame=   12 fps=2.2 q=0.0 size=N/A time=00:00:00.49 bitrate=N/A speed=0.0909x    
frame=   16 fps=2.7 q=0.0 size=N/A time=00:00:00.66 bitrate=N/A speed=0.111x    
frame=   18 fps=2.7 q=0.0 size=N/A time=00:00:00.74 bitrate=N/A speed=0.114x    
frame=   20 fps=2.8 q=0.0 size=N/A time=00:00:00.81 bitrate=N/A speed=0.113x    
frame=   21 fps=2.6 q=28.0 size=N/A time=00:00:00.85 bitrate=N/A speed=0.106x    
frame=   22 fps=2.5 q=28.0 size=N/A time=00:00:00.89 bitrate=N/A speed=0.104x    
frame=   27 fps=2.9 q=28.0 size=N/A time=00:00:01.10 bitrate=N/A speed=0.117x    
frame=   54 fps=5.4 q=28.0 size=N/A time=00:00:02.23 bitrate=N/A speed=0.225x    
frame=   63 fps=5.8 q=28.0 size=N/A time=00:00:02.62 bitrate=N/A speed=0.242x    
frame=   66 fps=5.7 q=28.0 size=N/A time=00:00:02.73 bitrate=N/A speed=0.236x    
frame=   76 fps=6.3 q=28.0 size=N/A time=00:00:03.15 bitrate=N/A speed=0.261x    
frame=   88 fps=7.0 q=25.0 size=N/A time=00:00:03.64 bitrate=N/A speed=0.29x    
[hls @ 0x564c7b465900] Opening '/config/data/transcodes/d57c052e7dd260d5b303820baee4e4ce0.ts' for writing
frame=   95 fps=7.3 q=28.0 size=N/A time=00:00:03.94 bitrate=N/A speed=0.302x    
frame=  104 fps=7.7 q=28.0 size=N/A time=00:00:04.33 bitrate=N/A speed=0.319x    
frame=  116 fps=8.2 q=28.0 size=N/A time=00:00:04.82 bitrate=N/A speed=0.342x    
frame=  127 fps=8.7 q=28.0 size=N/A time=00:00:05.29 bitrate=N/A speed=0.36x    
frame=  134 fps=8.8 q=28.0 size=N/A time=00:00:05.56 bitrate=N/A speed=0.366x    
frame=  139 fps=8.9 q=28.0 size=N/A time=00:00:05.78 bitrate=N/A speed=0.368x    
frame=  144 fps=8.7 q=28.0 size=N/A time=00:00:05.99 bitrate=N/A speed=0.364x    
frame=  151 fps=8.9 q=28.0 size=N/A time=00:00:06.29 bitrate=N/A speed=0.37x    
frame=  161 fps=9.2 q=28.0 size=N/A time=00:00:06.69 bitrate=N/A speed=0.382x    
[hls @ 0x564c7b465900] Opening '/config/data/transcodes/d57c052e7dd260d5b303820baee4e4ce1.ts' for writing
frame=  170 fps=9.4 q=28.0 size=N/A time=00:00:07.08 bitrate=N/A speed=0.393x    
frame=  179 fps=9.6 q=28.0 size=N/A time=00:00:07.44 bitrate=N/A speed= 0.4x    
frame=  189 fps=9.9 q=28.0 size=N/A time=00:00:07.87 bitrate=N/A speed=0.412x    
frame=  198 fps= 10 q=28.0 size=N/A time=00:00:08.23 bitrate=N/A speed=0.42x    
frame=  204 fps= 10 q=28.0 size=N/A time=00:00:08.49 bitrate=N/A speed=0.422x    
frame=  211 fps= 10 q=28.0 size=N/A time=00:00:08.78 bitrate=N/A speed=0.424x    
frame=  216 fps= 10 q=28.0 size=N/A time=00:00:09.00 bitrate=N/A speed=0.424x    
frame=  221 fps= 10 q=28.0 size=N/A time=00:00:09.19 bitrate=N/A speed=0.421x    
frame=  227 fps= 10 q=28.0 size=N/A time=00:00:09.45 bitrate=N/A speed=0.42x    
frame=  234 fps= 10 q=28.0 size=N/A time=00:00:09.74 bitrate=N/A speed=0.423x    
frame=  236 fps=9.9 q=28.0 size=N/A time=00:00:09.83 bitrate=N/A speed=0.411x    
[hls @ 0x564c7b465900] Opening '/config/data/transcodes/d57c052e7dd260d5b303820baee4e4ce2.ts' for writing
frame=  237 fps=9.1 q=28.0 size=N/A time=00:00:09.87 bitrate=N/A speed=0.379x    
frame=  240 fps=9.0 q=28.0 size=N/A time=00:00:10.00 bitrate=N/A speed=0.377x    
frame=  242 fps=8.9 q=28.0 size=N/A time=00:00:10.09 bitrate=N/A speed=0.371x    
frame=  245 fps=8.8 q=28.0 size=N/A time=00:00:10.19 bitrate=N/A speed=0.367x    
frame=  247 fps=8.7 q=28.0 size=N/A time=00:00:10.28 bitrate=N/A speed=0.363x    
frame=  251 fps=8.7 q=28.0 size=N/A time=00:00:10.45 bitrate=N/A speed=0.362x    
frame=  252 fps=8.5 q=28.0 size=N/A time=00:00:10.49 bitrate=N/A speed=0.355x    
frame=  254 fps=8.4 q=28.0 size=N/A time=00:00:10.58 bitrate=N/A speed=0.349x    
frame=  257 fps=8.1 q=28.0 size=N/A time=00:00:10.70 bitrate=N/A speed=0.338x    
frame=  260 fps=8.1 q=28.0 size=N/A time=00:00:10.83 bitrate=N/A speed=0.337x    
frame=  263 fps=7.9 q=28.0 size=N/A time=00:00:10.96 bitrate=N/A speed=0.329x    
frame=  265 fps=7.8 q=28.0 size=N/A time=00:00:11.02 bitrate=N/A speed=0.325x    
frame=  272 fps=7.8 q=28.0 size=N/A time=00:00:11.32 bitrate=N/A speed=0.326x    
frame=  273 fps=7.7 q=28.0 size=N/A time=00:00:11.37 bitrate=N/A speed=0.321x    
frame=  275 fps=7.6 q=28.0 size=N/A time=00:00:11.45 bitrate=N/A speed=0.316x    
frame=  278 fps=7.5 q=28.0 size=N/A time=00:00:11.58 bitrate=N/A speed=0.313x    
frame=  280 fps=7.4 q=28.0 size=N/A time=00:00:11.66 bitrate=N/A speed=0.309x    
frame=  284 fps=7.3 q=28.0 size=N/A time=00:00:11.83 bitrate=N/A speed=0.306x    
frame=  288 fps=7.3 q=28.0 size=N/A time=00:00:11.98 bitrate=N/A speed=0.304x    
frame=  293 fps=7.3 q=28.0 size=N/A time=00:00:12.20 bitrate=N/A speed=0.304x    
frame=  297 fps=7.3 q=28.0 size=N/A time=00:00:12.37 bitrate=N/A speed=0.305x    
frame=  299 fps=7.2 q=28.0 size=N/A time=00:00:12.45 bitrate=N/A speed=0.302x    
frame=  302 fps=7.2 q=28.0 size=N/A time=00:00:12.58 bitrate=N/A speed= 0.3x    
frame=  304 fps=6.9 q=25.0 size=N/A time=00:00:12.67 bitrate=N/A speed=0.289x    
frame=  306 fps=6.9 q=28.0 size=N/A time=00:00:12.75 bitrate=N/A speed=0.288x    
[hls @ 0x564c7b465900] Opening '/config/data/transcodes/d57c052e7dd260d5b303820baee4e4ce3.ts' for writing
frame=  309 fps=6.8 q=28.0 size=N/A time=00:00:12.86 bitrate=N/A speed=0.285x    
frame=  311 fps=6.7 q=28.0 size=N/A time=00:00:12.94 bitrate=N/A speed=0.279x    
frame=  314 fps=6.7 q=28.0 size=N/A time=00:00:13.07 bitrate=N/A speed=0.277x    
frame=  317 fps=6.6 q=28.0 size=N/A time=00:00:13.20 bitrate=N/A speed=0.276x    
frame=  322 fps=6.6 q=28.0 size=N/A time=00:00:13.41 bitrate=N/A speed=0.277x    
frame=  328 fps=6.7 q=28.0 size=N/A time=00:00:13.67 bitrate=N/A speed=0.278x    
frame=  335 fps=6.7 q=28.0 size=N/A time=00:00:13.95 bitrate=N/A speed=0.281x    
frame=  344 fps=6.8 q=28.0 size=N/A time=00:00:14.33 bitrate=N/A speed=0.285x    
frame=  353 fps=7.0 q=28.0 size=N/A time=00:00:14.71 bitrate=N/A speed=0.29x    
frame=  363 fps=7.1 q=28.0 size=N/A time=00:00:15.12 bitrate=N/A speed=0.295x    
frame=  371 fps=7.2 q=28.0 size=N/A time=00:00:15.46 bitrate=N/A speed=0.298x    
frame=  380 fps=7.2 q=28.0 size=N/A time=00:00:15.82 bitrate=N/A speed=0.302x    
[hls @ 0x564c7b465900] Opening '/config/data/transcodes/d57c052e7dd260d5b303820baee4e4ce4.ts' for writing
frame=  388 fps=7.3 q=28.0 size=N/A time=00:00:16.17 bitrate=N/A speed=0.305x    
frame=  397 fps=7.4 q=28.0 size=N/A time=00:00:16.55 bitrate=N/A speed=0.31x    
frame=  405 fps=7.5 q=28.0 size=N/A time=00:00:16.87 bitrate=N/A speed=0.312x    
frame=  412 fps=7.5 q=28.0 size=N/A time=00:00:17.17 bitrate=N/A speed=0.314x    
frame=  419 fps=7.6 q=28.0 size=N/A time=00:00:17.47 bitrate=N/A speed=0.317x    
frame=  427 fps=7.7 q=28.0 size=N/A time=00:00:17.79 bitrate=N/A speed=0.32x    
frame=  438 fps=7.8 q=28.0 size=N/A time=00:00:18.26 bitrate=N/A speed=0.324x    
frame=  449 fps=7.9 q=28.0 size=N/A time=00:00:18.70 bitrate=N/A speed=0.329x    
[hls @ 0x564c7b465900] Opening '/config/data/transcodes/d57c052e7dd260d5b303820baee4e4ce5.ts' for writing
frame=  455 fps=7.9 q=28.0 size=N/A time=00:00:18.96 bitrate=N/A speed=0.33x    
frame=  463 fps=8.0 q=28.0 size=N/A time=00:00:19.30 bitrate=N/A speed=0.333x    
frame=  467 fps=8.0 q=28.0 size=N/A time=00:00:19.45 bitrate=N/A speed=0.332x    
frame=  473 fps=8.0 q=28.0 size=N/A time=00:00:19.71 bitrate=N/A speed=0.334x    
frame=  479 fps=8.0 q=28.0 size=N/A time=00:00:19.96 bitrate=N/A speed=0.335x    
frame=  484 fps=8.0 q=28.0 size=N/A time=00:00:20.18 bitrate=N/A speed=0.335x    
frame=  489 fps=8.0 q=28.0 size=N/A time=00:00:20.37 bitrate=N/A speed=0.335x    
frame=  494 fps=8.0 q=28.0 size=N/A time=00:00:20.58 bitrate=N/A speed=0.334x    
frame=  502 fps=8.0 q=28.0 size=N/A time=00:00:20.92 bitrate=N/A speed=0.335x    
frame=  505 fps=8.0 q=28.0 size=N/A time=00:00:21.05 bitrate=N/A speed=0.335x    
frame=  510 fps=8.0 q=28.0 size=N/A time=00:00:21.24 bitrate=N/A speed=0.335x    
frame=  516 fps=8.1 q=28.0 size=N/A time=00:00:21.50 bitrate=N/A speed=0.336x    
[hls @ 0x564c7b465900] Opening '/config/data/transcodes/d57c052e7dd260d5b303820baee4e4ce6.ts' for writing
frame=  528 fps=8.2 q=28.0 size=N/A time=00:00:22.01 bitrate=N/A speed=0.341x    
frame=  541 fps=8.3 q=28.0 size=N/A time=00:00:22.54 bitrate=N/A speed=0.347x    
frame=  553 fps=8.4 q=28.0 size=N/A time=00:00:23.06 bitrate=N/A speed=0.352x    
frame=  562 fps=8.5 q=28.0 size=N/A time=00:00:23.42 bitrate=N/A speed=0.354x    
frame=  568 fps=8.5 q=28.0 size=N/A time=00:00:23.67 bitrate=N/A speed=0.356x    
frame=  571 fps=8.5 q=28.0 size=N/A time=00:00:23.80 bitrate=N/A speed=0.354x    
frame=  575 fps=8.4 q=28.0 size=N/A time=00:00:23.97 bitrate=N/A speed=0.352x    
frame=  578 fps=8.4 q=28.0 size=N/A time=00:00:24.08 bitrate=N/A speed=0.351x    
frame=  585 fps=8.4 q=28.0 size=N/A time=00:00:24.38 bitrate=N/A speed=0.352x    
frame=  593 fps=8.5 q=28.0 size=N/A time=00:00:24.72 bitrate=N/A speed=0.354x    
[hls @ 0x564c7b465900] Opening '/config/data/transcodes/d57c052e7dd260d5b303820baee4e4ce7.ts' for writing
frame=  598 fps=8.5 q=28.0 size=N/A time=00:00:24.93 bitrate=N/A speed=0.354x    
frame=  602 fps=8.5 q=28.0 size=N/A time=00:00:25.08 bitrate=N/A speed=0.353x    
frame=  605 fps=8.4 q=28.0 size=N/A time=00:00:25.21 bitrate=N/A speed=0.352x    
frame=  612 fps=8.5 q=28.0 size=N/A time=00:00:25.51 bitrate=N/A speed=0.353x    
frame=  619 fps=8.5 q=28.0 size=N/A time=00:00:25.81 bitrate=N/A speed=0.355x    
frame=  626 fps=8.5 q=28.0 size=N/A time=00:00:26.09 bitrate=N/A speed=0.356x    
frame=  633 fps=8.6 q=28.0 size=N/A time=00:00:26.38 bitrate=N/A speed=0.357x    
frame=  636 fps=8.6 q=28.0 size=N/A time=00:00:26.51 bitrate=N/A speed=0.357x    
frame=  642 fps=8.6 q=28.0 size=N/A time=00:00:26.77 bitrate=N/A speed=0.357x    
frame=  650 fps=8.6 q=28.0 size=N/A time=00:00:27.09 bitrate=N/A speed=0.358x    
frame=  655 fps=8.6 q=28.0 size=N/A time=00:00:27.30 bitrate=N/A speed=0.359x    
frame=  662 fps=8.6 q=28.0 size=N/A time=00:00:27.60 bitrate=N/A speed=0.36x    
[hls @ 0x564c7b465900] Opening '/config/data/transcodes/d57c052e7dd260d5b303820baee4e4ce8.ts' for writing
frame=  669 fps=8.6 q=28.0 size=N/A time=00:00:27.88 bitrate=N/A speed=0.36x    
frame=  673 fps=8.6 q=28.0 size=N/A time=00:00:28.05 bitrate=N/A speed=0.359x    

[q] command received. Exiting.

[hls @ 0x564c7b465900] Opening '/config/data/transcodes/d57c052e7dd260d5b303820baee4e4ce9.ts' for writing
frame=  676 fps=8.5 q=-1.0 Lsize=N/A time=00:00:28.15 bitrate=N/A speed=0.353x    
video:4183kB audio:488kB subtitle:0kB other streams:0kB global headers:0kB muxing overhead: unknown
[libx264 @ 0x564c7b6a3440] frame I:10    Avg QP:17.01  size: 90662
[libx264 @ 0x564c7b6a3440] frame P:210   Avg QP:18.52  size: 13460
[libx264 @ 0x564c7b6a3440] frame B:456   Avg QP:19.84  size:  1206
[libx264 @ 0x564c7b6a3440] consecutive B-frames:  3.3% 18.0%  7.1% 71.6%
[libx264 @ 0x564c7b6a3440] mb I  I16..4: 41.6%  0.0% 58.4%
[libx264 @ 0x564c7b6a3440] mb P  I16..4: 14.6%  0.0%  0.0%  P16..4: 19.4%  0.0%  0.0%  0.0%  0.0%    skip:65.9%
[libx264 @ 0x564c7b6a3440] mb B  I16..4:  0.8%  0.0%  0.0%  B16..8:  3.2%  0.0%  0.0%  direct: 1.9%  skip:94.1%  L0:42.1% L1:54.5% BI: 3.4%
[libx264 @ 0x564c7b6a3440] coded y,uvDC,uvAC intra: 31.1% 32.5% 7.7% inter: 1.9% 3.9% 0.0%
[libx264 @ 0x564c7b6a3440] i16 v,h,dc,p: 41% 24% 15% 20%
[libx264 @ 0x564c7b6a3440] i4 v,h,dc,ddl,ddr,vr,hd,vl,hu: 32% 23% 14%  8%  5%  5%  4%  4%  6%
[libx264 @ 0x564c7b6a3440] i8c dc,h,v,p: 56% 18% 21%  5%
[libx264 @ 0x564c7b6a3440] Weighted P-Frames: Y:1.4% UV:0.5%
[libx264 @ 0x564c7b6a3440] kb/s:1215.26